<svg xmlns="http://www.w3.org/2000/svg" version="1.1" xmlns:xlink="http://www.w3.org/1999/xlink" xmlns:svgjs="http://svgjs.dev/svgjs" width="2000" height="489" viewBox="0 0 2000 489"><g transform="matrix(1,0,0,1,-1.2121212121212466,0.37510198023201724)"><svg viewBox="0 0 396 97" data-background-color="#182524" preserveAspectRatio="xMidYMid meet" height="489" width="2000" xmlns="http://www.w3.org/2000/svg" xmlns:xlink="http://www.w3.org/1999/xlink"><g id="tight-bounds" transform="matrix(1,0,0,1,0.2400000000000091,-0.07440673227506522)"><svg viewBox="0 0 395.52 97.14881346455014" height="97.14881346455014" width="395.52"><g><svg viewBox="0 0 540.164542142091 132.67684148646373" height="97.14881346455014" width="395.52"><g transform="matrix(1,0,0,1,144.644542142091,40.999069809988214)"><svg viewBox="0 0 395.52 50.678701866487295" height="50.678701866487295" width="395.52"><g id="textblocktransform"><svg viewBox="0 0 395.52 50.678701866487295" height="50.678701866487295" width="395.52" id="textblock"><g><svg viewBox="0 0 395.52 50.678701866487295" height="50.678701866487295" width="395.52"><g transform="matrix(1,0,0,1,0,0)"><svg width="395.52" viewBox="0.35 -37.25 297.33 38.1" height="50.678701866487295" data-palette-color="#e2f1e6"><path d="M16.25-33L16.25-33 16.95-31.05 12.7-30Q13.6-26.55 14.4-23.8 15.2-21.05 16-18.63 16.8-16.2 17.73-13.73 18.65-11.25 19.8-8.3L19.8-8.3 17.6 0.45 14.95 0.45Q13.5-4.25 12.25-8.15 11-12.05 9.8-15.55 8.6-19.05 7.38-22.58 6.15-26.1 4.75-30L4.75-30 0.35-31.05 1.05-33Q2.8-32.85 4.35-32.83 5.9-32.8 8.35-32.8L8.35-32.8Q10.75-32.8 12.63-32.85 14.5-32.9 16.25-33ZM25.05-33L27.85-33 26.9-24.7Q25.2-20.2 23.68-16.28 22.15-12.35 20.68-8.35 19.2-4.35 17.6 0.45L17.6 0.45 16.2-4.6Q18.15-9.6 19.63-14.03 21.1-18.45 22.4-23 23.7-27.55 25.05-33L25.05-33ZM25.05-33L27.85-33Q29.2-28.85 30.3-25.73 31.4-22.6 32.45-19.95 33.5-17.3 34.65-14.53 35.8-11.75 37.25-8.3L37.25-8.3 34.5-1.3 32.9 0.4Q31.35-3.85 30.13-7.05 28.9-10.25 27.88-12.9 26.85-15.55 25.8-18.13 24.75-20.7 23.45-23.65L23.45-23.65 25.05-33ZM49-33L49-33 49.65-31.05 45.35-30Q44.05-26.5 42.93-23.18 41.8-19.85 40.68-16.3 39.55-12.75 38.33-8.68 37.1-4.6 35.55 0.4L35.55 0.4 32.9 0.4 34.15-6.25Q36.1-11.35 37.85-17.57 39.6-23.8 40.45-30L40.45-30 35.8-31.05 36.5-33Q38.2-32.95 39.88-32.88 41.55-32.8 43.2-32.8L43.2-32.8Q44.95-32.8 46.3-32.88 47.65-32.95 49-33ZM61.65-21.85L61.65-21.85Q64.15-21.85 66.27-20.75 68.4-19.65 69.67-17.43 70.95-15.2 70.95-11.85L70.95-11.85Q69.85-11.65 68.05-11.5 66.25-11.35 64.1-11.28 61.95-11.2 59.8-11.2L59.8-11.2Q58.2-11.2 57.05-11.25 55.9-11.3 55.5-11.35L55.5-11.35 55.5-13.75Q56.05-13.75 57.17-13.75 58.3-13.75 59.7-13.8 61.1-13.85 62.42-13.95 63.75-14.05 64.65-14.2L64.65-14.2Q64.6-15.25 64.07-16.32 63.55-17.4 62.5-18.15 61.45-18.9 59.8-18.9L59.8-18.9Q58.8-17.95 58.2-16.28 57.6-14.6 57.6-12.4L57.6-12.4Q57.6-7.9 59.47-5.78 61.35-3.65 64.1-3.65L64.1-3.65Q66.9-3.65 70-5.65L70-5.65 71.1-3.35Q68.95-1.4 66.5-0.55 64.05 0.3 61.65 0.3L61.65 0.3Q58.85 0.3 56.42-0.93 54-2.15 52.52-4.6 51.05-7.05 51.05-10.7L51.05-10.7Q51.05-14.4 52.57-16.88 54.1-19.35 56.52-20.6 58.95-21.85 61.65-21.85ZM85.7-21.8L85.7-21.8Q88.34-21.8 90.3-20.18 92.25-18.55 92.25-15.25L92.25-15.25Q92.25-13.1 92.17-11.65 92.09-10.2 92.02-9.08 91.95-7.95 91.95-6.75L91.95-6.75Q91.95-5.35 92.12-4.78 92.3-4.2 93.09-4.2L93.09-4.2Q93.8-4.2 95.2-4.85L95.2-4.85 96.09-2.65Q94.3-1.4 92.65-0.58 91 0.25 89.15 0.25L89.15 0.25Q87.59 0.25 86.45-0.98 85.3-2.2 85.3-4.85L85.3-4.85Q85.3-7.3 85.52-9.68 85.75-12.05 85.75-13.9L85.75-13.9Q85.75-15.45 85.3-16.4 84.84-17.35 83.8-17.7L83.8-17.7Q81.5-17.6 79.4-16.85 77.3-16.1 75.09-14.95L75.09-14.95 73.8-17.1Q76.65-19.2 79.57-20.5 82.5-21.8 85.7-21.8ZM89.25-13.95L89.25-13.95 86.25-9.8Q85.15-9.55 84.3-9.3 83.45-9.05 82.75-8.9L82.75-8.9Q81.05-8.55 80.4-8.03 79.75-7.5 79.75-6.2L79.75-6.2Q79.75-5.15 80.3-4.55 80.84-3.95 81.8-3.95L81.8-3.95Q82.95-3.95 84.72-5.03 86.5-6.1 87.75-7.75L87.75-7.75 88.7-5.7Q87.9-4.7 86.42-3.25 84.95-1.8 82.9-0.68 80.84 0.45 78.4 0.45L78.4 0.45Q77.15 0.45 75.97-0.23 74.8-0.9 74.02-2.25 73.25-3.6 73.25-5.6L73.25-5.6Q73.25-7.7 74.52-8.88 75.8-10.05 78-10.7 80.2-11.35 82.84-11.8L82.84-11.8Q84.65-12.1 86.2-12.58 87.75-13.05 89.25-13.95ZM106.69-27.6L106.69-27.6Q106.59-25.85 106.54-23.53 106.49-21.2 106.47-18.73 106.44-16.25 106.47-14 106.49-11.75 106.52-10.1 106.54-8.45 106.59-7.8L106.59-7.8Q106.69-5.95 107.24-5.2 107.79-4.45 108.99-4.45L108.99-4.45Q109.84-4.45 110.79-4.75 111.74-5.05 113.29-6L113.29-6 114.29-4Q113.04-2.95 111.62-1.9 110.19-0.85 108.52-0.18 106.84 0.5 104.79 0.5L104.79 0.5Q103.64 0.5 102.54 0.03 101.44-0.45 100.77-1.63 100.09-2.8 100.09-4.8L100.09-4.8Q100.09-4.75 100.12-5.7 100.14-6.65 100.17-8.22 100.19-9.8 100.24-11.55 100.29-13.3 100.32-14.85 100.34-16.4 100.37-17.38 100.39-18.35 100.39-18.25L100.39-18.25Q100.34-18.8 99.77-19.2 99.19-19.6 98.44-19.9 97.69-20.2 97.09-20.45 96.49-20.7 96.44-21L96.44-21Q97.64-21.2 98.49-21.4 99.34-21.6 100.34-21.85L100.34-21.85Q101.44-23.3 102.32-24.58 103.19-25.85 104.34-27.6L104.34-27.6Q104.79-27.6 105.49-27.6 106.19-27.6 106.69-27.6ZM96.44-21L113.59-21.05 113.59-17.4 96.44-18.4 96.44-21ZM125.59-37.25L125.59-37.25Q125.59-32.2 125.59-27.75 125.59-23.3 125.57-19.9 125.54-16.5 125.49-14.55L125.49-14.55 125.64-2.9 129.34-1.85 128.64 0Q126.99-0.1 125.37-0.13 123.74-0.15 121.74-0.15L121.74-0.15Q119.79-0.15 118.09-0.1 116.39-0.05 114.94 0L114.94 0 114.09-1.85 118.44-2.9Q118.59-6.15 118.67-10.05 118.74-13.95 118.74-17.9L118.74-17.9Q118.74-22.35 118.62-26.2 118.49-30.05 118.19-33.65L118.19-33.65 114.29-34.3 113.74-36.35Q116.24-36.4 119.29-36.65 122.34-36.9 125.59-37.25ZM133.99-21.75L133.99-21.75Q137.09-21.75 138.92-19.6 140.74-17.45 140.94-14.05L140.94-14.05Q141.04-13.15 140.99-11.23 140.94-9.3 140.92-7.05 140.89-4.8 140.89-2.9L140.89-2.9 144.59-1.85 143.84 0Q141.14-0.15 137.34-0.15L137.34-0.15Q135.44-0.15 133.89-0.1 132.34-0.05 131.04 0L131.04 0 130.34-1.85 133.99-2.9Q134.09-4.6 134.14-5.78 134.19-6.95 134.22-8.13 134.24-9.3 134.19-10.9L134.19-10.9Q134.14-14.4 132.97-15.7 131.79-17 129.44-17L129.44-17Q127.24-15.55 126.37-13.55 125.49-11.55 125.54-9.65L125.54-9.65 123.74-11.85Q124.09-14.7 125.52-16.95 126.94-19.2 129.14-20.48 131.34-21.75 133.99-21.75ZM156.49-21.85L156.49-21.85Q158.99-21.85 161.11-20.75 163.24-19.65 164.51-17.43 165.79-15.2 165.79-11.85L165.79-11.85Q164.69-11.65 162.89-11.5 161.09-11.35 158.94-11.28 156.79-11.2 154.64-11.2L154.64-11.2Q153.04-11.2 151.89-11.25 150.74-11.3 150.34-11.35L150.34-11.35 150.34-13.75Q150.89-13.75 152.01-13.75 153.14-13.75 154.54-13.8 155.94-13.85 157.26-13.95 158.59-14.05 159.49-14.2L159.49-14.2Q159.44-15.25 158.91-16.32 158.39-17.4 157.34-18.15 156.29-18.9 154.64-18.9L154.64-18.9Q153.64-17.95 153.04-16.28 152.44-14.6 152.44-12.4L152.44-12.4Q152.44-7.9 154.31-5.78 156.19-3.65 158.94-3.65L158.94-3.65Q161.74-3.65 164.84-5.65L164.84-5.65 165.94-3.35Q163.79-1.4 161.34-0.55 158.89 0.3 156.49 0.3L156.49 0.3Q153.69 0.3 151.26-0.93 148.84-2.15 147.36-4.6 145.89-7.05 145.89-10.7L145.89-10.7Q145.89-14.4 147.41-16.88 148.94-19.35 151.36-20.6 153.79-21.85 156.49-21.85ZM178.24-21.7L178.24-21.7Q178.28-20.55 178.39-19 178.49-17.45 178.59-16.18 178.69-14.9 178.69-14.45L178.69-14.45 179.03-3.1 183.99-1.85 183.24 0Q182.39-0.05 180.99-0.08 179.59-0.1 178.09-0.13 176.59-0.15 175.39-0.15L175.39-0.15Q173.84-0.15 172.03-0.1 170.24-0.05 168.74 0L168.74 0 167.99-1.85 172.03-2.9Q172.03-5.15 172.03-6.93 172.03-8.7 172.03-10.8L172.03-10.8Q172.03-11.95 172.01-12.93 171.99-13.9 171.94-15.13 171.89-16.35 171.74-18.15L171.74-18.15 168.34-18.7 167.64-20.8Q168.78-20.85 170.71-20.95 172.64-21.05 174.69-21.25 176.74-21.45 178.24-21.7ZM184.94-21.8L184.94-21.8Q186.34-21.8 187.54-21.28 188.74-20.75 189.84-19.6L189.84-19.6Q189.54-18.1 189.29-17 189.04-15.9 188.71-14.83 188.39-13.75 187.94-12.2L187.94-12.2 185.14-12.2Q184.78-14.05 184.11-15.43 183.44-16.8 182.28-17.3L182.28-17.3Q181.03-16.5 179.91-14.33 178.78-12.15 178.78-8.55L178.78-8.55 176.84-11.45Q177.24-14.25 178.39-16.6 179.53-18.95 181.21-20.38 182.89-21.8 184.94-21.8ZM217.68-33L217.68-33 218.23-31.05 213.83-29.85Q213.78-24.55 213.75-20.98 213.73-17.4 213.73-16.25L213.73-16.25Q213.73-13 213.73-10.7 213.73-8.4 213.75-6.6 213.78-4.8 213.83-2.95L213.83-2.95 218.23-1.9 217.68 0Q214.98-0.15 210.08-0.15L210.08-0.15Q207.78-0.15 205.96-0.1 204.13-0.05 202.58 0L202.58 0 201.93-1.9 206.33-2.95Q206.43-7.2 206.48-10.7 206.53-14.2 206.53-17.95L206.53-17.95Q206.53-20.55 206.48-23.45 206.43-26.35 206.33-29.85L206.33-29.85 201.93-31.05 202.53-33Q204.13-32.9 206.08-32.83 208.03-32.75 210.33-32.75L210.33-32.75Q212.33-32.75 214.33-32.85 216.33-32.95 217.68-33ZM228.53-18.4L228.53-18.4 228.53-14.8Q224.18-15.1 219.83-15.1L219.83-15.1Q217.83-15.1 215.88-15.03 213.93-14.95 212.03-14.85L212.03-14.85 212.03-18.35Q213.93-18.25 215.88-18.18 217.83-18.1 219.83-18.1L219.83-18.1Q224.18-18.1 228.53-18.4ZM238.03-33L238.03-33 238.58-31.05 234.18-29.85Q234.18-26.05 234.16-22.98 234.13-19.9 234.11-17.18 234.08-14.45 234.08-11.7L234.08-11.7Q234.08-9.7 234.11-7.55 234.13-5.4 234.18-2.95L234.18-2.95 238.58-1.9 238.03 0Q235.33-0.15 230.53-0.15L230.53-0.15Q228.23-0.15 226.36-0.1 224.48-0.05 222.93 0L222.93 0 222.28-1.9 226.68-2.95Q226.78-7.2 226.86-10.65 226.93-14.1 226.93-17.7L226.93-17.7Q226.93-20.35 226.86-23.3 226.78-26.25 226.68-29.85L226.68-29.85 222.28-31.05 222.88-33Q224.43-32.9 226.43-32.83 228.43-32.75 230.73-32.75L230.73-32.75Q232.73-32.75 234.71-32.85 236.68-32.95 238.03-33ZM251.08 0.85L251.08 0.85Q247.93 0.85 246.15-1.3 244.38-3.45 244.13-7.55L244.13-7.55Q244.03-9.3 244.03-11.88 244.03-14.45 244.08-18.35L244.08-18.35 240.53-18.9 239.93-20.95Q242.83-20.95 245.65-21.15 248.48-21.35 250.93-21.7L250.93-21.7Q250.83-19.4 250.7-17.48 250.58-15.55 250.58-13.58 250.58-11.6 250.73-9L250.73-9Q250.88-6.1 252.08-5 253.28-3.9 254.43-3.9L254.43-3.9Q255.63-4.15 256.68-5.53 257.73-6.9 258.38-8.88 259.03-10.85 259.03-12.8L259.03-12.8 260.33-8.55Q260.03-6.1 258.78-3.95 257.53-1.8 255.55-0.48 253.58 0.85 251.08 0.85ZM259.43 0L259.43 0Q259.38-1.5 259.25-3.2 259.13-4.9 259.08-7.25L259.08-7.25 258.78-18.3 255.18-18.9 254.58-20.95Q257.53-20.95 260.28-21.15 263.03-21.35 265.53-21.7L265.53-21.7Q265.53-21.7 265.5-20.55 265.48-19.4 265.45-17.7 265.43-16 265.38-14.33 265.33-12.65 265.3-11.5 265.28-10.35 265.28-10.35L265.28-10.35Q265.33-8.65 265.45-7.13 265.58-5.6 265.78-2.9L265.78-2.9 269.53-1.85 268.58 0Q267.28-0.1 266.15-0.1 265.03-0.1 263.28-0.1L263.28-0.1Q262.53-0.1 261.33-0.05 260.13 0 259.43 0ZM282.32-37.25L282.32-37.25Q282.27-35.85 282.27-34.38 282.27-32.9 282.27-31.45L282.27-31.45Q282.27-28.85 282.3-26.75 282.32-24.65 282.35-22.58 282.38-20.5 282.38-17.9L282.38-17.9Q282.38-16.85 282.38-14.93 282.38-13 282.38-10.85 282.38-8.7 282.4-6.85 282.43-5 282.43-4.1L282.43-4.1 281.32-3.15Q280.77-2.5 279.95-1.68 279.13-0.85 278.27 0L278.27 0 275.18 0Q275.27-1.3 275.32-3.4 275.38-5.5 275.43-8 275.48-10.5 275.5-13.05 275.52-15.6 275.55-17.85 275.57-20.1 275.57-21.7L275.57-21.7Q275.57-24.65 275.43-27.4 275.27-30.15 274.93-33.55L274.93-33.55 270.93-34.2 270.48-36.35Q271.32-36.4 272.8-36.45 274.27-36.5 276.02-36.63 277.77-36.75 279.45-36.9 281.13-37.05 282.32-37.25ZM289.27-21.8L289.27-21.8Q292.02-21.8 293.88-20.28 295.73-18.75 296.7-16.32 297.68-13.9 297.68-11.2L297.68-11.2Q297.68-8.35 296.6-5.73 295.52-3.1 293.38-1.43 291.23 0.25 287.98 0.25L287.98 0.25Q285.23 0.25 283.15-1.3 281.07-2.85 279.57-5.25L279.57-5.25 280.88-7.35Q281.68-5.75 283.02-4.5 284.38-3.25 286.68-3.25L286.68-3.25Q288.02-3.25 288.98-4.28 289.93-5.3 290.43-6.95 290.93-8.6 290.93-10.4L290.93-10.4Q290.93-12.2 290.43-13.93 289.93-15.65 288.93-16.85 287.93-18.05 286.43-18.25L286.43-18.25Q284.88-18 283.63-15.93 282.38-13.85 282.38-10.2L282.38-10.2 280.93-14.55Q281.43-16.5 282.5-18.15 283.57-19.8 285.27-20.8 286.98-21.8 289.27-21.8Z" opacity="1" transform="matrix(1,0,0,1,0,0)" fill="#ffffff" class="wordmark-text-0" data-fill-palette-color="primary" id="text-0"></path></svg></g></svg></g></svg></g></svg></g><g><svg viewBox="0 0 132.68051692025816 132.67684148646373" height="132.67684148646373" width="132.68051692025816"><g><svg xmlns="http://www.w3.org/2000/svg" xmlns:xlink="http://www.w3.org/1999/xlink" version="1.1" x="0" y="0" viewBox="1 0.9989392242722923 62.00177831072538 62.00006077572771" style="enable-background:new 0 0 64 64;" xml:space="preserve" height="132.67684148646373" width="132.68051692025816" class="icon-icon-0" data-fill-palette-color="accent" id="icon-0"><g fill="#f2e2de" data-fill-palette-color="accent"><rect x="23" y="56" width="2" height="2" fill="#ffffff" data-fill-palette-color="accent"></rect><path d="M60.978 22.77c-0.51-0.496-1.459-1.42-1.475-1.769 0.015-0.351 0.964-1.274 1.474-1.771 1.138-1.107 2.314-2.252 1.961-3.571-0.363-1.359-1.99-1.77-3.563-2.167-0.658-0.166-1.883-0.476-2.078-0.741-0.146-0.311 0.203-1.551 0.39-2.217 0.436-1.547 0.886-3.146-0.095-4.126-0.981-0.982-2.581-0.53-4.126-0.095-0.667 0.188-1.903 0.537-2.209 0.396-0.272-0.2-0.582-1.425-0.748-2.083-0.397-1.574-0.808-3.201-2.168-3.564-1.321-0.349-2.463 0.824-3.571 1.961-0.496 0.51-1.42 1.459-1.769 1.475-0.351-0.015-1.274-0.964-1.771-1.474-1.107-1.138-2.253-2.315-3.571-1.961-1.359 0.363-1.77 1.99-2.167 3.563-0.166 0.658-0.476 1.883-0.741 2.078-0.309 0.147-1.551-0.203-2.217-0.39-1.546-0.437-3.146-0.888-4.126 0.095-0.981 0.981-0.53 2.58-0.095 4.126 0.188 0.667 0.537 1.906 0.396 2.209-0.2 0.272-1.425 0.582-2.083 0.748-1.234 0.312-2.491 0.639-3.156 1.418C21.6 13.707 19.383 13 17 13c-6.617 0-12 5.383-12 12 0 1.097 0.153 2.171 0.442 3.212C2.888 28.901 1 31.231 1 34c0 3.309 2.691 6 6 6h13v12.552c-1.556 1.395-2.279 3.481-1.898 5.563 0.432 2.358 2.29 4.269 4.624 4.753 0.422 0.088 0.846 0.131 1.266 0.131 1.379 0 2.714-0.464 3.793-1.342C29.192 60.51 30 58.813 30 57c0-1.713-0.723-3.308-2-4.449V40h13c1.346 0 2.586-0.451 3.589-1.203 0.061 0.062 0.121 0.118 0.181 0.18 0.971 0.998 1.971 2.025 3.092 2.025 0.157 0 0.317-0.021 0.479-0.064 1.359-0.363 1.77-1.99 2.167-3.563 0.166-0.658 0.476-1.883 0.741-2.078 0.307-0.147 1.55 0.203 2.217 0.39 1.545 0.435 3.145 0.886 4.126-0.095 0.981-0.981 0.53-2.58 0.095-4.126-0.188-0.667-0.537-1.906-0.396-2.209 0.2-0.272 1.425-0.582 2.083-0.748 1.574-0.397 3.201-0.808 3.564-2.168C63.291 25.022 62.115 23.877 60.978 22.77zM26.522 60.104c-0.953 0.775-2.156 1.061-3.391 0.805-1.545-0.321-2.775-1.589-3.062-3.155-0.279-1.526 0.294-2.997 1.534-3.934L22 53.52V50h2v-2h-2v-2h2v-2h-2v-2h2v-2h-2v-2h2v-2h-2v-2h2v-2h-2v-2c0-1.103 0.897-2 2-2s2 0.897 2 2v23.52l0.397 0.3C27.416 54.59 28 55.749 28 57 28 58.209 27.461 59.341 26.522 60.104zM41 38H28v-8c0-2.206-1.794-4-4-4s-4 1.794-4 4v8H7c-2.206 0-4-1.794-4-4s1.794-4 4-4 4 1.794 4 4h2c0-3.149-2.439-5.733-5.527-5.976C7.164 27.05 7 26.037 7 25c0-5.514 4.486-10 10-10s10 4.486 10 10h2c0-1.111-0.164-2.182-0.447-3.204C29.625 21.283 30.798 21 32 21c4.106 0 7.496 3.111 7.946 7.099C37.139 28.599 35 31.052 35 34h2c0-2.206 1.794-4 4-4s4 1.794 4 4S43.206 38 41 38zM41.954 28.083c-0.459-5.025-4.649-8.98-9.77-9.074C33.129 13.875 37.675 10 43 10c6.065 0 11 4.935 11 11 0 4.81-3.074 8.99-7.575 10.455C45.596 29.693 43.938 28.402 41.954 28.083zM58.885 26.57c-1.414 0.357-2.75 0.694-3.321 1.68-0.579 1-0.201 2.34 0.198 3.758 0.187 0.662 0.534 1.894 0.451 2.144-0.312 0.14-1.542-0.204-2.204-0.39-1.418-0.399-2.758-0.777-3.758-0.198-0.987 0.571-1.324 1.907-1.681 3.322-0.171 0.678-0.49 1.94-0.692 2.115-0.333-0.04-1.206-0.937-1.675-1.418-0.077-0.079-0.153-0.15-0.23-0.229C46.621 36.396 47 35.241 47 34c0-0.21-0.011-0.418-0.032-0.622C52.33 31.67 56 26.712 56 21c0-7.168-5.832-13-13-13-6.479 0-11.974 4.859-12.861 11.196-0.789 0.149-1.557 0.383-2.287 0.716-0.677-1.439-1.63-2.718-2.792-3.777 0.331-0.267 1.434-0.548 2.056-0.705 1.414-0.357 2.75-0.694 3.321-1.68 0.579-1 0.201-2.34-0.198-3.758-0.187-0.662-0.534-1.894-0.451-2.144 0.311-0.146 1.542 0.204 2.204 0.39 1.419 0.4 2.758 0.778 3.758 0.198 0.987-0.571 1.324-1.907 1.681-3.322 0.171-0.678 0.49-1.94 0.692-2.115 0.333 0.04 1.206 0.937 1.675 1.418 0.995 1.022 2.024 2.08 3.203 2.08s2.208-1.057 3.203-2.08c0.469-0.481 1.342-1.378 1.589-1.438 0.288 0.194 0.606 1.457 0.778 2.135 0.357 1.414 0.694 2.75 1.68 3.321 1.001 0.579 2.34 0.201 3.758-0.198 0.662-0.187 1.892-0.531 2.144-0.451 0.143 0.311-0.204 1.542-0.39 2.204-0.4 1.418-0.777 2.758-0.198 3.758 0.571 0.987 1.907 1.324 3.322 1.682 0.678 0.171 1.94 0.49 2.115 0.691-0.04 0.333-0.937 1.206-1.418 1.675-1.022 0.995-2.079 2.024-2.079 3.203s1.057 2.208 2.08 3.203c0.481 0.469 1.378 1.342 1.438 1.589C60.826 26.08 59.563 26.398 58.885 26.57z" fill="#ffffff" data-fill-palette-color="accent"></path></g></svg></g></svg></g></svg></g><defs></defs></svg><rect width="395.52" height="97.14881346455014" fill="none" stroke="none" visibility="hidden"></rect></g></svg></g></svg>